# xmcd
#
# Track frame offsets:
#	150
#	12966
#	29279
#	44190
#
# Disc length: 921 seconds
#
# Revision: 0
# Processed by: cddbd v1.5.2PL0 Copyright (c) Steve Scherf et al.
# Submitted via: audiograbber 1.83.01
#
DISCID=2e039704
DTITLE=Juulke - Boe Blief Dat Beer ?
DYEAR=2012
DGENRE=carnaval B
TTITLE0=Boe Blief Dat Beer ?
TTITLE1=Laot ze mer zeike
TTITLE2=Boe, Verwaat en Weij Lang
TTITLE3=Sierra Madre
EXTD=
EXTT0=
EXTT1=
EXTT2=
EXTT3=
PLAYORDER=
